PathFileType	4	(X/Y/Z)	Patient4_TMGait_0pt3_02_right_06.trc.trc
DataRate	CameraRate	NumFrames	NumMarkers	Units	OrigDataRate	OrigDataStartFrame	OrigNumFrames
47.945205479452	47.945205479452	4	33	mm	47.945205479452	53	       141
Frame#	Time	Sacral			L.Shoulder			Chest			R.Shoulder			Neck			R.ASIS			L.ASIS			R.Thigh.Superior			R.Thigh.Lateral			R.Thigh.Inferior			R.Patella			L.Thigh.Superior			L.Thigh.Lateral			L.Thigh.Inferior			L.Patella			L.Shank.Superior			L.Shank.Lateral			L.Shank.Inferior			R.Shank.Superior			R.Shank.Lateral			R.Shank.Inferior			R.Heel			R.Midfoot.Superior			R.Midfoot.Lateral			R.Toe			L.Heel			L.Midfoot.Lateral			L.Midfoot.Superior			L.Toe			L.Elbow			L.Wrist			R.Elbow			R.Wrist			
		X1	Y1	Z1	X2	Y2	Z2	X3	Y3	Z3	X4	Y4	Z4	X5	Y5	Z5	X6	Y6	Z6	X7	Y7	Z7	X8	Y8	Z8	X9	Y9	Z9	X10	Y10	Z10	X11	Y11	Z11	X12	Y12	Z12	X13	Y13	Z13	X14	Y14	Z14	X15	Y15	Z15	X16	Y16	Z16	X17	Y17	Z17	X18	Y18	Z18	X19	Y19	Z19	X20	Y20	Z20	X21	Y21	Z21	X22	Y22	Z22	X23	Y23	Z23	X24	Y24	Z24	X25	Y25	Z25	X26	Y26	Z26	X27	Y27	Z27	X28	Y28	Z28	X29	Y29	Z29	X30	Y30	Z30	X31	Y31	Z31	X32	Y32	Z32	X33	Y33	Z33	

53	11.474571428571	694.006333605720	983.594879812595	583.948038883752	869.179845540150	1420.459267161841	405.965851122317	969.200213777154	1349.984264394245	567.828312623552	882.952130778320	1418.599239358489	742.126700482310	851.090417446706	1480.213973703580	566.707764642752	928.893067045489	930.212902920657	698.404030266607	908.860659754242	947.888193380030	425.143674373990	978.418808253950	731.769209643586	657.822155245252	901.077709791150	612.589342285609	707.114196406388	981.634389218217	569.152616957862	625.222873645044	983.655400914844	472.530191147426	626.912941003380	992.980700863088	762.935174284964	447.830650651847	946.500999953785	635.976974439974	368.439001744698	1050.893180204110	574.240329670355	430.005326637575	1064.064010026686	486.286965145822	417.595408300884	1001.272441754695	419.409880818187	407.115635289361	860.554503142182	365.559050636157	369.397602475660	870.006191778164	231.598410512489	411.710994396681	936.640409609511	385.664855648056	623.540126539993	845.988701949353	290.804760706963	675.517956531131	871.839076368037	196.437028757293	605.331190029332	715.340641432601	43.935572583255	561.863955313310	887.251053507370	96.224527824748	603.880355165934	796.286050200646	37.135511239954	639.005091387725	1004.823563602079	42.514009839676	634.761184414663	695.754200578535	131.683217313471	464.135531417556	747.803273298914	111.696375153494	370.835934092877	851.699008570780	136.774674071139	381.527611398205	942.616648137421	48.118769420794	324.055533047635	829.933936927639	1066.523548209463	295.775416761054	888.657199991352	812.687912072560	302.842184996719	919.090480168817	1071.413502471706	867.925072908658	1087.033205259327	873.720271367729	896.467386815266	
54	11.495428571429	692.790689010723	982.245540026617	587.389506413599	865.349382950271	1418.496280389824	406.435665443768	968.073720667161	1348.504023946392	566.804462258219	884.908657313496	1417.652098759303	742.388184940642	850.180224516087	1478.900936703175	567.069457415923	928.849360335207	928.803263277938	699.205035186814	905.851104005574	946.901058343794	426.204033847399	977.656733752518	730.287078201966	657.431047453330	900.952841709064	610.946008758744	707.135654552665	980.307131620710	567.750048032128	623.985048934845	982.113913735352	470.809256153418	625.235136227627	992.525329803890	764.537439448673	449.876591342396	948.671413228207	636.994612073854	370.334059195565	1053.407961813419	577.028872138332	432.657879694024	1069.041285486884	490.239660036768	420.054974909649	1009.654680953142	421.670816266830	408.505994347841	872.490953914610	360.639848038880	369.672192167295	889.174761553026	226.916847647825	411.164118222862	934.257080523790	384.087714427379	622.191817664149	843.454802148540	289.823672157013	674.925699788807	867.312045524488	195.419070019265	604.290790285407	709.161716812898	44.037316542946	561.755583268384	881.064671664774	96.122297772648	603.651385695275	790.086283693842	37.220035737024	638.901332821761	998.636648307720	42.041309027351	634.798448638591	720.696311308878	117.241923862697	462.190897644639	774.275627456775	100.702079980096	369.045393813000	876.560261108253	131.204273370416	380.354616870743	972.353929336458	48.153768014222	322.925828397858	813.729866280799	1065.645840644209	299.027992981908	853.740827298754	807.618913741916	307.030036456469	934.249834990529	1072.019050550801	867.866185585862	1114.564824467019	885.363252851035	892.361652041102	
55	11.516285714286	691.673926045202	981.439987792305	590.750017772994	861.466763287350	1417.035495469046	406.818523560185	967.056476018693	1347.438275273205	565.473163977547	887.227687670833	1417.149943074324	742.370453021127	849.420657925914	1478.007166294196	567.265704285241	928.926474009234	927.655281515788	699.612010231021	902.812485617304	946.373522048804	426.906922831164	976.565647680676	728.930816846990	656.679366051952	900.314274599066	609.604779057172	706.931574430998	978.290285003959	566.498842696299	622.466853409990	979.756373253564	469.360632778161	623.288564302459	991.570380325077	766.200227952607	451.773476930856	950.086973639075	638.169759598753	372.119619342976	1054.838581340634	579.709018193039	435.314926803702	1072.847490339032	494.324963404813	422.558484954849	1017.212235996700	424.200271450781	409.960282782614	884.444532439458	355.550732148324	369.597870595596	908.715553316861	222.584569010283	410.595829237158	931.230089891324	382.810534605757	620.699551230439	840.510377876043	289.002637220145	674.302653761471	862.536873979766	194.583948801238	603.235381170359	702.978184107598	44.174291340140	561.691511162387	874.858626518410	96.038566377157	603.443381507712	783.888112727395	37.306739426762	638.805604870378	992.444639546573	41.568053390924	634.821864088682	746.721404236224	103.191081810619	459.771738230330	802.125300153202	89.819493773765	367.159313217338	902.426826986508	125.899483484019	379.401073170746	1003.198241513664	48.589516841993	322.944424915537	797.346649288044	1065.988340470481	301.887923913758	820.540327475222	805.481988572659	311.069507221689	949.216216581516	1073.725533782206	867.570660017179	1141.797074986381	899.547669595132	887.185541401329	
56	11.537142857143	690.689222342548	981.262672180888	594.022321684682	857.567807145105	1416.186565624389	407.135586165357	966.159166795158	1346.864053624657	563.851399948748	889.911743327831	1417.154200618107	742.079700521095	848.821502669492	1477.604983742423	567.331294049396	929.118443604192	926.861928913229	699.632791455819	899.774598414219	946.353102455353	427.257283659367	975.110767410627	727.770149794995	655.699536146397	899.048683237322	608.655563736043	706.611579856665	975.532271077357	565.456477269181	620.866442244936	976.507705675541	468.245782293190	621.309371104668	990.098088949384	767.921430138538	453.421318637171	950.627254978961	639.503673594885	373.686679717586	1055.141888867014	582.240417123835	437.766497711836	1075.385594225405	498.492188890153	424.917383695377	1023.766892151551	427.016018043981	411.385329038506	896.213723494321	350.540850503741	369.209464536311	928.256507538975	218.923148929444	410.092304386518	927.487323046702	381.905392914471	619.246572198622	837.024269860064	288.414760523992	673.748931171763	857.472423553782	193.998920816879	602.283575583677	696.786533951106	44.368445341150	561.689004768474	868.641309752628	95.977286477258	603.278274132476	777.691279851194	37.396967768255	638.730020271550	986.245417726312	41.114514458805	634.832302011107	773.408246000745	90.127783919328	457.158277247234	830.852767065307	79.614566073507	365.404808211229	928.805792500887	121.285808076165	378.787807637387	1034.492736315762	49.736666581384	324.146961195698	780.968838435225	1067.626002891009	304.421178697524	789.473899836690	806.001169207894	314.992632752517	963.990337799572	1076.575165794112	867.066053501169	1168.407190104315	916.257851771617	881.050510449666	
